<mxfile host="app.diagrams.net" modified="2022-11-01T13:14:31.993Z" agent="5.0 (Windows NT 10.0; Win64; x64) AppleWebKit/537.36 (KHTML, like Gecko) Chrome/106.0.0.0 Safari/537.36" etag="yiM8QtAIfzJOAgz-8BOd" version="20.5.1" type="github">
  <diagram id="kgpKYQtTHZ0yAKxKKP6v" name="Page-1">
    <mxGraphModel dx="1477" dy="643" grid="1" gridSize="10" guides="1" tooltips="1" connect="1" arrows="1" fold="1" page="1" pageScale="1" pageWidth="827" pageHeight="1169" math="0" shadow="0">
      <root>
        <mxCell id="0" />
        <mxCell id="1" parent="0" />
        <mxCell id="3nuBFxr9cyL0pnOWT2aG-1" value=":Cámara" style="shape=umlLifeline;perimeter=lifelinePerimeter;container=1;collapsible=0;recursiveResize=0;rounded=0;shadow=0;strokeWidth=1;fontSize=16;align=center;size=50;" parent="1" vertex="1">
          <mxGeometry x="40" y="30" width="100" height="970" as="geometry" />
        </mxCell>
        <mxCell id="3nuBFxr9cyL0pnOWT2aG-5" value=":Sistema" style="shape=umlLifeline;perimeter=lifelinePerimeter;container=1;collapsible=0;recursiveResize=0;rounded=0;shadow=0;strokeWidth=1;fontSize=16;size=50;" parent="1" vertex="1">
          <mxGeometry x="330" y="30" width="110" height="970" as="geometry" />
        </mxCell>
        <mxCell id="3nuBFxr9cyL0pnOWT2aG-6" value="" style="points=[];perimeter=orthogonalPerimeter;rounded=0;shadow=0;strokeWidth=1;" parent="3nuBFxr9cyL0pnOWT2aG-5" vertex="1">
          <mxGeometry x="50" y="108" width="10" height="839" as="geometry" />
        </mxCell>
        <mxCell id="YozSI5X4KARO5TqyZE2r-28" value="return" style="html=1;verticalAlign=bottom;endArrow=open;dashed=1;endSize=8;rounded=0;fontSize=12;fontColor=none;noLabel=1;" parent="3nuBFxr9cyL0pnOWT2aG-5" edge="1">
          <mxGeometry x="0.5092" y="-20" relative="1" as="geometry">
            <mxPoint x="759.5" y="888" as="sourcePoint" />
            <mxPoint x="61" y="888" as="targetPoint" />
            <mxPoint as="offset" />
          </mxGeometry>
        </mxCell>
        <mxCell id="3nuBFxr9cyL0pnOWT2aG-8" value="SEND DATA" style="verticalAlign=bottom;endArrow=block;shadow=0;strokeWidth=1;" parent="1" edge="1">
          <mxGeometry x="-0.6087" relative="1" as="geometry">
            <mxPoint x="90" y="141" as="sourcePoint" />
            <mxPoint as="offset" />
            <mxPoint x="380" y="141" as="targetPoint" />
          </mxGeometry>
        </mxCell>
        <mxCell id="5ewyLEu5lSfxZkNV5egt-1" value=":API" style="shape=umlLifeline;perimeter=lifelinePerimeter;container=1;collapsible=0;recursiveResize=0;rounded=0;shadow=0;strokeWidth=1;fontSize=16;size=50;" parent="1" vertex="1">
          <mxGeometry x="580" y="30" width="110" height="970" as="geometry" />
        </mxCell>
        <mxCell id="5ewyLEu5lSfxZkNV5egt-2" value="" style="points=[];perimeter=orthogonalPerimeter;rounded=0;shadow=0;strokeWidth=1;" parent="5ewyLEu5lSfxZkNV5egt-1" vertex="1">
          <mxGeometry x="50" y="250" width="10" height="40" as="geometry" />
        </mxCell>
        <mxCell id="YozSI5X4KARO5TqyZE2r-10" value="return" style="html=1;verticalAlign=bottom;endArrow=open;dashed=1;endSize=8;rounded=0;fontSize=12;fontColor=none;noLabel=1;" parent="5ewyLEu5lSfxZkNV5egt-1" edge="1">
          <mxGeometry x="0.5413" y="-10" relative="1" as="geometry">
            <mxPoint x="54.5" y="290" as="sourcePoint" />
            <mxPoint x="-190" y="290" as="targetPoint" />
            <mxPoint as="offset" />
          </mxGeometry>
        </mxCell>
        <mxCell id="zOErF3bk2mBPyS0gTZtt-2" value="SEND DATA" style="verticalAlign=bottom;endArrow=block;shadow=0;strokeWidth=1;" parent="5ewyLEu5lSfxZkNV5egt-1" edge="1">
          <mxGeometry x="-0.6437" y="2" relative="1" as="geometry">
            <mxPoint x="-190" y="250" as="sourcePoint" />
            <mxPoint as="offset" />
            <mxPoint x="50" y="250" as="targetPoint" />
            <Array as="points">
              <mxPoint x="-30" y="250" />
            </Array>
          </mxGeometry>
        </mxCell>
        <mxCell id="YozSI5X4KARO5TqyZE2r-18" value="SEND DATA" style="verticalAlign=bottom;endArrow=block;shadow=0;strokeWidth=1;" parent="5ewyLEu5lSfxZkNV5egt-1" edge="1">
          <mxGeometry x="-0.6667" relative="1" as="geometry">
            <mxPoint x="-190" y="597" as="sourcePoint" />
            <mxPoint as="offset" />
            <mxPoint x="50" y="597" as="targetPoint" />
          </mxGeometry>
        </mxCell>
        <mxCell id="YozSI5X4KARO5TqyZE2r-19" value="" style="points=[];perimeter=orthogonalPerimeter;rounded=0;shadow=0;strokeWidth=1;" parent="5ewyLEu5lSfxZkNV5egt-1" vertex="1">
          <mxGeometry x="50" y="597" width="10" height="50" as="geometry" />
        </mxCell>
        <mxCell id="YozSI5X4KARO5TqyZE2r-24" value="return" style="html=1;verticalAlign=bottom;endArrow=open;dashed=1;endSize=8;rounded=0;fontSize=12;fontColor=none;noLabel=1;" parent="5ewyLEu5lSfxZkNV5egt-1" edge="1">
          <mxGeometry x="0.5092" y="-20" relative="1" as="geometry">
            <mxPoint x="270.5" y="769" as="sourcePoint" />
            <mxPoint x="-189" y="769" as="targetPoint" />
            <mxPoint as="offset" />
          </mxGeometry>
        </mxCell>
        <mxCell id="5ewyLEu5lSfxZkNV5egt-148" value=":Impresora" style="shape=umlLifeline;perimeter=lifelinePerimeter;container=1;collapsible=0;recursiveResize=0;rounded=0;shadow=0;strokeWidth=1;fontSize=16;size=50;" parent="1" vertex="1">
          <mxGeometry x="1040" y="30" width="100" height="970" as="geometry" />
        </mxCell>
        <mxCell id="YozSI5X4KARO5TqyZE2r-27" value="" style="points=[];perimeter=orthogonalPerimeter;rounded=0;shadow=0;strokeWidth=1;" parent="5ewyLEu5lSfxZkNV5egt-148" vertex="1">
          <mxGeometry x="45" y="848" width="10" height="40" as="geometry" />
        </mxCell>
        <mxCell id="5ewyLEu5lSfxZkNV5egt-150" value=":Servidor&#xa;Correo electronico" style="shape=umlLifeline;perimeter=lifelinePerimeter;container=1;collapsible=0;recursiveResize=0;rounded=0;shadow=0;strokeWidth=1;fontFamily=Helvetica;fontSize=16;size=50;" parent="1" vertex="1">
          <mxGeometry x="760" y="30" width="180" height="970" as="geometry" />
        </mxCell>
        <mxCell id="YozSI5X4KARO5TqyZE2r-12" value="" style="points=[];perimeter=orthogonalPerimeter;rounded=0;shadow=0;strokeWidth=1;" parent="5ewyLEu5lSfxZkNV5egt-150" vertex="1">
          <mxGeometry x="85" y="359" width="10" height="50" as="geometry" />
        </mxCell>
        <mxCell id="YozSI5X4KARO5TqyZE2r-11" value="SEND MAIL  (DATA; &quot;AVISOS@CIUDAD&quot;)" style="verticalAlign=bottom;endArrow=block;shadow=0;strokeWidth=1;" parent="5ewyLEu5lSfxZkNV5egt-150" edge="1">
          <mxGeometry x="-0.4666" y="3" relative="1" as="geometry">
            <mxPoint x="-370" y="359" as="sourcePoint" />
            <mxPoint as="offset" />
            <mxPoint x="85" y="359" as="targetPoint" />
            <Array as="points">
              <mxPoint x="-228" y="359.99999999999994" />
            </Array>
          </mxGeometry>
        </mxCell>
        <mxCell id="YozSI5X4KARO5TqyZE2r-23" value="" style="points=[];perimeter=orthogonalPerimeter;rounded=0;shadow=0;strokeWidth=1;" parent="5ewyLEu5lSfxZkNV5egt-150" vertex="1">
          <mxGeometry x="85" y="719" width="10" height="50" as="geometry" />
        </mxCell>
        <mxCell id="5ewyLEu5lSfxZkNV5egt-163" value="&amp;lt;&amp;lt;NULL&amp;gt;&amp;gt;" style="text;html=1;resizable=0;autosize=1;align=center;verticalAlign=middle;points=[];fillColor=none;strokeColor=none;rounded=0;fontFamily=Helvetica;fontSize=15;" parent="5ewyLEu5lSfxZkNV5egt-150" vertex="1">
          <mxGeometry x="-69" y="859" width="100" height="30" as="geometry" />
        </mxCell>
        <mxCell id="5ewyLEu5lSfxZkNV5egt-155" value="&amp;lt;&amp;lt;NULL&amp;gt;&amp;gt;" style="text;html=1;resizable=0;autosize=1;align=center;verticalAlign=middle;points=[];fillColor=none;strokeColor=none;rounded=0;fontFamily=Helvetica;fontSize=15;" parent="1" vertex="1">
          <mxGeometry x="170" y="451" width="100" height="30" as="geometry" />
        </mxCell>
        <mxCell id="5ewyLEu5lSfxZkNV5egt-158" value="&amp;lt;&amp;lt;NULL&amp;gt;&amp;gt;" style="text;html=1;resizable=0;autosize=1;align=center;verticalAlign=middle;points=[];fillColor=none;strokeColor=none;rounded=0;fontFamily=Helvetica;fontSize=15;" parent="1" vertex="1">
          <mxGeometry x="470" y="651" width="100" height="30" as="geometry" />
        </mxCell>
        <mxCell id="5ewyLEu5lSfxZkNV5egt-159" value="&amp;lt;&amp;lt;NULL&amp;gt;&amp;gt;" style="text;html=1;resizable=0;autosize=1;align=center;verticalAlign=middle;points=[];fillColor=none;strokeColor=none;rounded=0;fontFamily=Helvetica;fontSize=15;" parent="1" vertex="1">
          <mxGeometry x="470" y="295" width="100" height="30" as="geometry" />
        </mxCell>
        <mxCell id="5ewyLEu5lSfxZkNV5egt-160" value="&amp;lt;&amp;lt;NULL&amp;gt;&amp;gt;" style="text;html=1;resizable=0;autosize=1;align=center;verticalAlign=middle;points=[];fillColor=none;strokeColor=none;rounded=0;fontFamily=Helvetica;fontSize=15;" parent="1" vertex="1">
          <mxGeometry x="181" y="952" width="100" height="30" as="geometry" />
        </mxCell>
        <mxCell id="5ewyLEu5lSfxZkNV5egt-161" value="&amp;lt;&amp;lt;NULL&amp;gt;&amp;gt;" style="text;html=1;resizable=0;autosize=1;align=center;verticalAlign=middle;points=[];fillColor=none;strokeColor=none;rounded=0;fontFamily=Helvetica;fontSize=15;" parent="1" vertex="1">
          <mxGeometry x="470" y="412" width="100" height="30" as="geometry" />
        </mxCell>
        <mxCell id="5ewyLEu5lSfxZkNV5egt-162" value="&amp;lt;&amp;lt;NULL&amp;gt;&amp;gt;" style="text;html=1;resizable=0;autosize=1;align=center;verticalAlign=middle;points=[];fillColor=none;strokeColor=none;rounded=0;fontFamily=Helvetica;fontSize=15;" parent="1" vertex="1">
          <mxGeometry x="482" y="769" width="100" height="30" as="geometry" />
        </mxCell>
        <mxCell id="5ewyLEu5lSfxZkNV5egt-164" value="&lt;font style=&quot;font-size: 12px;&quot;&gt;(Fecha, Hora,&lt;br&gt;ID, Patente,&lt;br&gt;Velocidad)&lt;/font&gt;" style="text;html=1;resizable=0;autosize=1;align=center;verticalAlign=middle;points=[];fillColor=none;strokeColor=none;rounded=0;fontFamily=Helvetica;fontSize=15;" parent="1" vertex="1">
          <mxGeometry x="189" y="74" width="100" height="70" as="geometry" />
        </mxCell>
        <mxCell id="YozSI5X4KARO5TqyZE2r-3" value="&lt;font style=&quot;font-size: 12px;&quot;&gt;(Fecha, Hora,&lt;br&gt;ID, Patente,&lt;br&gt;Velocidad)&lt;/font&gt;" style="text;html=1;resizable=0;autosize=1;align=center;verticalAlign=middle;points=[];fillColor=none;strokeColor=none;rounded=0;fontFamily=Helvetica;fontSize=15;" parent="1" vertex="1">
          <mxGeometry x="480" y="217" width="100" height="70" as="geometry" />
        </mxCell>
        <mxCell id="YozSI5X4KARO5TqyZE2r-13" value="return" style="html=1;verticalAlign=bottom;endArrow=open;dashed=1;endSize=8;rounded=0;fontSize=12;fontColor=none;noLabel=1;exitX=0.5;exitY=0.98;exitDx=0;exitDy=0;exitPerimeter=0;" parent="1" edge="1">
          <mxGeometry x="0.5092" y="-20" relative="1" as="geometry">
            <mxPoint x="850" y="439" as="sourcePoint" />
            <mxPoint x="390" y="439" as="targetPoint" />
            <mxPoint as="offset" />
          </mxGeometry>
        </mxCell>
        <mxCell id="YozSI5X4KARO5TqyZE2r-14" value="return" style="html=1;verticalAlign=bottom;endArrow=open;dashed=1;endSize=8;rounded=0;fontSize=12;fontColor=none;noLabel=1;" parent="1" edge="1">
          <mxGeometry x="0.5092" y="-20" relative="1" as="geometry">
            <mxPoint x="380" y="479" as="sourcePoint" />
            <mxPoint x="90" y="479" as="targetPoint" />
            <mxPoint as="offset" />
          </mxGeometry>
        </mxCell>
        <mxCell id="YozSI5X4KARO5TqyZE2r-20" value="return" style="html=1;verticalAlign=bottom;endArrow=open;dashed=1;endSize=8;rounded=0;fontSize=12;fontColor=none;noLabel=1;" parent="1" edge="1">
          <mxGeometry x="0.5092" y="-20" relative="1" as="geometry">
            <mxPoint x="630" y="677" as="sourcePoint" />
            <mxPoint x="390" y="677" as="targetPoint" />
            <mxPoint as="offset" />
          </mxGeometry>
        </mxCell>
        <mxCell id="YozSI5X4KARO5TqyZE2r-15" value="&lt;font style=&quot;font-size: 12px;&quot;&gt;(Fecha, Hora,&lt;br&gt;ID, Patente,&lt;br&gt;Velocidad)&lt;/font&gt;" style="text;html=1;resizable=0;autosize=1;align=center;verticalAlign=middle;points=[];fillColor=none;strokeColor=none;rounded=0;fontFamily=Helvetica;fontSize=15;" parent="1" vertex="1">
          <mxGeometry x="480" y="563" width="100" height="70" as="geometry" />
        </mxCell>
        <mxCell id="YozSI5X4KARO5TqyZE2r-22" value="SEND MAIL  (DATA; &quot;AVISOS@CIUDAD&quot;)" style="verticalAlign=bottom;endArrow=block;shadow=0;strokeWidth=1;" parent="1" edge="1">
          <mxGeometry x="-0.4666" y="3" relative="1" as="geometry">
            <mxPoint x="390" y="750" as="sourcePoint" />
            <mxPoint as="offset" />
            <mxPoint x="845" y="750" as="targetPoint" />
            <Array as="points">
              <mxPoint x="532" y="751" />
            </Array>
          </mxGeometry>
        </mxCell>
        <mxCell id="YozSI5X4KARO5TqyZE2r-25" value="SEND DATA  (IMPRINT)" style="verticalAlign=bottom;endArrow=block;shadow=0;strokeWidth=1;entryX=0.1;entryY=-0.017;entryDx=0;entryDy=0;entryPerimeter=0;" parent="1" edge="1">
          <mxGeometry x="-0.7414" y="2" relative="1" as="geometry">
            <mxPoint x="390" y="881" as="sourcePoint" />
            <mxPoint as="offset" />
            <mxPoint x="1086" y="879.98" as="targetPoint" />
          </mxGeometry>
        </mxCell>
        <mxCell id="YozSI5X4KARO5TqyZE2r-30" value="return" style="html=1;verticalAlign=bottom;endArrow=open;dashed=1;endSize=8;rounded=0;fontSize=12;fontColor=none;noLabel=1;" parent="1" edge="1">
          <mxGeometry x="0.5092" y="-20" relative="1" as="geometry">
            <mxPoint x="380" y="977" as="sourcePoint" />
            <mxPoint x="90" y="977" as="targetPoint" />
            <mxPoint as="offset" />
          </mxGeometry>
        </mxCell>
        <mxCell id="YozSI5X4KARO5TqyZE2r-34" value="[ &lt;span style=&quot;font-size: 16px;&quot;&gt;Velocidad &amp;gt; 70km/h&lt;/span&gt;]" style="text;html=1;resizable=0;autosize=1;align=center;verticalAlign=middle;points=[];fillColor=none;strokeColor=none;rounded=0;fontSize=17;fontColor=none;" parent="1" vertex="1">
          <mxGeometry x="390" y="192" width="180" height="30" as="geometry" />
        </mxCell>
        <mxCell id="YozSI5X4KARO5TqyZE2r-35" value="[ &lt;span style=&quot;font-size: 16px;&quot;&gt;Velocidad&amp;gt; 100km/h&lt;/span&gt;]" style="text;html=1;resizable=0;autosize=1;align=center;verticalAlign=middle;points=[];fillColor=none;strokeColor=none;rounded=0;fontSize=17;fontColor=none;" parent="1" vertex="1">
          <mxGeometry x="390" y="526" width="180" height="30" as="geometry" />
        </mxCell>
        <mxCell id="YozSI5X4KARO5TqyZE2r-36" value="&lt;font style=&quot;font-size: 16px;&quot;&gt;[Repetir x3]&lt;/font&gt;" style="text;html=1;resizable=0;autosize=1;align=center;verticalAlign=middle;points=[];fillColor=none;strokeColor=none;rounded=0;fontSize=17;fontColor=none;" parent="1" vertex="1">
          <mxGeometry x="276" y="853" width="110" height="30" as="geometry" />
        </mxCell>
        <mxCell id="Q76jah6kw0klHy7KOI9b-3" value="" style="endArrow=none;dashed=1;html=1;rounded=0;strokeWidth=2;" parent="1" edge="1">
          <mxGeometry width="50" height="50" relative="1" as="geometry">
            <mxPoint x="310" y="518" as="sourcePoint" />
            <mxPoint x="1160" y="518" as="targetPoint" />
          </mxGeometry>
        </mxCell>
        <mxCell id="KKbYnRF_3C59-J5U1wcn-1" value="DATA=&lt;br&gt;(Fecha, Hora, ID, Patente&lt;br&gt;Velocidad)" style="shape=note;whiteSpace=wrap;html=1;backgroundOutline=1;darkOpacity=0.05;" parent="1" vertex="1">
          <mxGeometry x="140" y="659" width="150" height="100" as="geometry" />
        </mxCell>
        <mxCell id="KKbYnRF_3C59-J5U1wcn-2" value="" style="endArrow=none;dashed=1;html=1;rounded=0;entryX=1;entryY=1;entryDx=0;entryDy=0;entryPerimeter=0;exitX=0.5;exitY=0.845;exitDx=0;exitDy=0;exitPerimeter=0;" parent="1" edge="1">
          <mxGeometry width="50" height="50" relative="1" as="geometry">
            <mxPoint x="385" y="824.6500000000001" as="sourcePoint" />
            <mxPoint x="290" y="735" as="targetPoint" />
          </mxGeometry>
        </mxCell>
        <mxCell id="wA5bPgC_BK_YLJ1Pqf5t-1" value="&lt;font style=&quot;font-size: 14px;&quot;&gt;loop&lt;/font&gt;" style="shape=umlFrame;whiteSpace=wrap;html=1;fontSize=10;" vertex="1" parent="1">
          <mxGeometry x="220" y="849" width="900" height="91" as="geometry" />
        </mxCell>
        <mxCell id="wA5bPgC_BK_YLJ1Pqf5t-2" value="alt" style="shape=umlFrame;whiteSpace=wrap;html=1;fontSize=14;" vertex="1" parent="1">
          <mxGeometry x="310" y="183" width="850" height="777" as="geometry" />
        </mxCell>
      </root>
    </mxGraphModel>
  </diagram>
</mxfile>
